<?xml version="1.0" encoding="iso-8859-1"?>
<!-- Generator: Adobe Illustrator 19.0.0, SVG Export Plug-In . SVG Version: 6.00 Build 0)  -->
<svg version="1.1" id="Capa_1" xmlns="http://www.w3.org/2000/svg" xmlns:xlink="http://www.w3.org/1999/xlink" x="0px" y="0px"
	 viewBox="0 0 512 512" style="enable-background:new 0 0 512 512;" xml:space="preserve">
<circle style="fill:#A2F9F9;" cx="248.38" cy="263.8" r="188.1"/>
<g>
	<path style="fill:#33C7CA;" d="M248.378,334.299c-64.061,0-120.632,14.5-154.598,36.642
		c33.966,48.915,90.537,80.948,154.598,80.948c64.062,0,120.632-32.033,154.599-80.948
		C369.01,348.799,312.44,334.299,248.378,334.299z"/>
	<path style="fill:#33C7CA;" d="M248.378,193.855c64.23,0,120.931-14.579,154.867-36.819
		c-33.936-49.134-90.637-81.337-154.867-81.337c-64.231,0-120.929,32.203-154.866,81.337
		C127.449,179.277,184.147,193.855,248.378,193.855z"/>
</g>
<g style="opacity:0.1;">
	<path style="fill:#00003F;" d="M92.254,263.795c0-98.497,75.712-179.298,172.11-187.413c-5.272-0.444-10.601-0.683-15.986-0.683
		c-103.882,0-188.095,84.213-188.095,188.096c0,103.882,84.213,188.095,188.095,188.095c5.386,0,10.714-0.239,15.986-0.683
		C167.966,443.093,92.254,362.292,92.254,263.795z"/>
</g>
<path style="fill:#0291C9;" d="M248.378,68.207c-107.847,0-195.588,87.74-195.588,195.588s87.741,195.587,195.588,195.587
	c107.848,0,195.589-87.74,195.589-195.587C443.967,155.947,356.226,68.207,248.378,68.207z M400.686,360.752
	c-7.888-4.583-16.664-8.766-26.188-12.505c8.132-23.836,12.746-49.921,13.467-76.96h40.85
	C427.468,304.107,417.331,334.697,400.686,360.752z M387.965,256.302c-0.716-26.85-5.27-52.761-13.295-76.461
	c9.559-3.764,18.365-7.976,26.273-12.591c16.49,25.966,26.531,56.405,27.871,89.053h-40.849V256.302z M392.369,154.912
	c-6.938,3.985-14.626,7.643-22.949,10.94c-5.858-14.182-13.025-27.413-21.43-39.369c-6.922-9.848-14.465-18.52-22.501-25.977
	C351.93,113.043,374.859,131.813,392.369,154.912z M255.87,326.882v-55.594h53.309c-0.295,20.625-1.804,40.631-4.438,59.385
	C289.012,328.471,272.6,327.18,255.87,326.882z M302.385,345.444c-3.195,17.863-7.463,34.337-12.717,48.796
	c-9.614,26.455-21.615,43.534-33.798,48.582V341.869C271.825,342.161,287.445,343.377,302.385,345.444z M255.87,256.302v-55.029
	c16.761-0.299,33.198-1.593,48.949-3.8c2.586,18.593,4.067,38.409,4.359,58.829H255.87z M255.87,186.286V84.768
	c12.183,5.048,24.185,22.126,33.798,48.582c5.309,14.607,9.608,31.273,12.815,49.35C287.517,184.773,271.863,185.994,255.87,186.286
	z M303.752,128.232c-5.487-15.099-11.829-27.539-18.805-37.112c29.656,13.198,54.635,42.01,70.344,79.785
	c-11.793,3.81-24.557,6.974-38.02,9.425C313.905,161.283,309.367,143.686,303.752,128.232z M192.016,330.673
	c-2.634-18.754-4.143-38.761-4.438-59.385h53.307v55.594C224.155,327.18,207.744,328.471,192.016,330.673z M240.885,341.869v100.952
	c-12.183-5.049-24.183-22.127-33.796-48.582c-5.254-14.458-9.521-30.932-12.718-48.796
	C209.311,343.377,224.93,342.161,240.885,341.869z M187.578,256.302c0.292-20.42,1.773-40.236,4.359-58.829
	c15.75,2.207,32.186,3.501,48.947,3.8v55.029H187.578z M194.273,182.7c3.207-18.077,7.507-34.742,12.816-49.35
	c9.613-26.455,21.613-43.534,33.796-48.581v101.518C224.892,185.994,209.239,184.773,194.273,182.7z M211.809,91.12
	c-6.976,9.574-13.317,22.013-18.804,37.112c-5.616,15.453-10.153,33.051-13.52,52.098c-13.462-2.452-26.226-5.615-38.019-9.425
	C157.175,133.131,182.152,104.318,211.809,91.12z M177.149,195.094c-2.712,19.382-4.261,40-4.557,61.208h-48.81
	c0.723-25.508,5.111-49.668,12.43-71.4C148.93,189.042,162.677,192.463,177.149,195.094z M172.593,271.288
	c0.299,21.41,1.875,42.219,4.635,61.762c-14.434,2.621-28.148,6.027-40.84,10.148c-7.422-21.863-11.876-46.201-12.604-71.91H172.593
	z M179.584,347.809c3.355,18.836,7.859,36.244,13.421,51.548c5.486,15.099,11.828,27.539,18.804,37.112
	c-29.525-13.14-54.417-41.754-70.137-79.283C153.437,353.397,166.164,350.249,179.584,347.809z M284.947,436.469
	c6.976-9.574,13.317-22.013,18.805-37.112c5.562-15.304,10.065-32.711,13.422-51.547c13.419,2.439,26.146,5.587,37.912,9.377
	C339.365,394.716,314.473,423.329,284.947,436.469z M319.529,333.05c2.761-19.543,4.336-40.353,4.636-61.762h48.81
	c-0.728,25.708-5.184,50.046-12.604,71.91C347.678,339.076,333.963,335.67,319.529,333.05z M324.165,256.302
	c-0.296-21.208-1.846-41.827-4.558-61.208c14.473-2.63,28.221-6.052,40.938-10.192c7.318,21.732,11.707,45.892,12.43,71.4H324.165z
	 M171.268,100.505c-8.036,7.457-15.579,16.129-22.501,25.978c-8.403,11.957-15.571,25.187-21.43,39.369
	c-8.323-3.297-16.012-6.955-22.949-10.94C121.898,131.813,144.827,113.042,171.268,100.505z M67.942,271.288h40.851
	c0.721,27.039,5.335,53.124,13.466,76.96c-9.522,3.74-18.3,7.923-26.188,12.506C79.426,334.698,69.289,304.107,67.942,271.288z
	 M95.813,167.249c7.909,4.616,16.716,8.827,26.275,12.591c-8.025,23.7-12.579,49.612-13.295,76.461H67.942
	C69.282,223.654,79.323,193.215,95.813,167.249z M104.688,373.069c6.914-3.95,14.569-7.575,22.85-10.845
	c5.821,13.998,12.922,27.061,21.229,38.882c6.922,9.848,14.465,18.521,22.501,25.978
	C144.977,414.618,122.159,395.988,104.688,373.069z M325.49,427.083c8.035-7.457,15.578-16.129,22.5-25.977
	c8.308-11.82,15.408-24.883,21.229-38.881c8.281,3.27,15.936,6.895,22.849,10.844C374.597,395.988,351.78,414.618,325.49,427.083z"
	/>
<circle style="fill:#EF5050;" cx="248.38" cy="263.8" r="22.736"/>
<g>
	<circle style="fill:#FFFFFF;" cx="132.63" cy="349.23" r="22.736"/>
	<path style="fill:#FFFFFF;" d="M205.661,185.938c0,12.558-10.181,22.738-22.738,22.738c-12.555,0-22.736-10.18-22.736-22.738
		s10.182-22.736,22.736-22.736C195.481,163.202,205.661,173.38,205.661,185.938z"/>
</g>
<path style="fill:#33C7CA;" d="M423.886,88.288c-41.957-41.957-96.294-67.026-154.771-71.832c0.573,1.995,0.886,4.101,0.886,6.28
	c0,3.081-0.615,6.018-1.726,8.697C387.593,41.563,481.598,141.9,481.598,263.794c0,128.598-104.622,233.22-233.22,233.22
	c-3.856,0-7.765-0.096-11.613-0.284c-4.135-0.188-7.647,2.985-7.85,7.118c-0.202,4.133,2.984,7.647,7.118,7.85
	c4.091,0.2,8.245,0.302,12.345,0.302c66.298,0,128.628-25.818,175.508-72.698s72.698-109.209,72.698-175.508
	C496.584,197.498,470.766,135.168,423.886,88.288z"/>
<g>
	<path style="fill:#F7931E;" d="M201.74,507.485c-0.479,0-0.964-0.046-1.451-0.142c-4.026-0.791-8.085-1.693-12.063-2.684
		c-4.016-0.999-6.461-5.065-5.462-9.08c1-4.015,5.064-6.462,9.081-5.461c3.736,0.93,7.55,1.778,11.331,2.521
		c4.061,0.797,6.705,4.735,5.908,8.796C208.384,505.008,205.25,507.485,201.74,507.485z"/>
	<path style="fill:#F7931E;" d="M156.826,493.982c-0.95,0-1.916-0.182-2.849-0.566c-3.803-1.565-7.613-3.247-11.327-4.997
		c-3.743-1.765-5.346-6.23-3.582-9.973c1.765-3.744,6.232-5.347,9.973-3.582c3.488,1.645,7.067,3.224,10.64,4.694
		c3.827,1.575,5.652,5.954,4.077,9.78C162.566,492.232,159.773,493.982,156.826,493.982z"/>
</g>
<g>
	<path style="fill:#FCDB67;" d="M79.054,442.376c-1.905,0-3.811-0.721-5.271-2.167c-2.921-2.892-5.802-5.888-8.563-8.906
		c-2.794-3.053-2.582-7.792,0.471-10.585c3.055-2.793,7.794-2.582,10.587,0.471c2.594,2.836,5.302,5.652,8.048,8.371
		c2.94,2.911,2.965,7.655,0.054,10.596C82.913,441.635,80.983,442.376,79.054,442.376z"/>
	<path style="fill:#FCDB67;" d="M49.102,406.342c-2.4,0-4.756-1.149-6.205-3.284c-2.303-3.39-4.549-6.882-6.679-10.381
		c-2.152-3.535-1.03-8.145,2.504-10.296c3.533-2.153,8.144-1.03,10.296,2.504c2.002,3.288,4.113,6.57,6.276,9.755
		c2.323,3.423,1.434,8.083-1.989,10.408C52.015,405.923,50.55,406.342,49.102,406.342z"/>
	<path style="fill:#FCDB67;" d="M26.686,365.222c-2.916,0-5.689-1.713-6.9-4.568c-1.602-3.776-3.126-7.635-4.53-11.469
		c-1.423-3.886,0.573-8.19,4.459-9.612c3.886-1.421,8.189,0.574,9.613,4.459c1.317,3.6,2.749,7.224,4.253,10.77
		c1.617,3.81-0.162,8.208-3.972,9.824C28.654,365.03,27.662,365.222,26.686,365.222z"/>
	<path style="fill:#FCDB67;" d="M12.697,320.52c-3.476,0-6.593-2.432-7.327-5.969c-0.834-4.01-1.578-8.1-2.211-12.159
		c-0.638-4.089,2.159-7.92,6.248-8.559c4.095-0.638,7.92,2.16,8.558,6.248c0.595,3.812,1.294,7.655,2.076,11.42
		c0.842,4.052-1.759,8.019-5.811,8.861C13.716,320.468,13.203,320.52,12.697,320.52z"/>
</g>
<g>
	<path style="fill:#FFC502;" d="M7.678,273.923c-4.1,0-7.444-3.3-7.49-7.409c-0.01-0.908-0.015-1.817-0.014-2.728
		c0-3.203,0.062-6.444,0.185-9.626c0.153-4.037,3.476-7.205,7.481-7.205c0.097,0,0.194,0.002,0.293,0.005
		c4.135,0.159,7.357,3.64,7.199,7.775c-0.114,2.991-0.173,6.039-0.173,9.059c-0.001,0.858,0.004,1.706,0.014,2.553
		c0.046,4.138-3.272,7.53-7.41,7.576C7.734,273.923,7.706,273.923,7.678,273.923z"/>
	<path style="fill:#FFC502;" d="M11.697,227.232c-0.452,0-0.911-0.041-1.372-0.126c-4.068-0.753-6.758-4.663-6.004-8.731
		c0.746-4.031,1.603-8.099,2.55-12.09c0.954-4.025,4.996-6.516,9.018-5.562c4.026,0.954,6.518,4.992,5.564,9.018
		c-0.89,3.751-1.696,7.573-2.396,11.361C18.389,224.71,15.239,227.232,11.697,227.232z"/>
	<path style="fill:#FFC502;" d="M24.695,182.183c-0.924,0-1.863-0.171-2.773-0.535c-3.844-1.533-5.717-5.891-4.185-9.735
		c1.524-3.82,3.163-7.65,4.873-11.382c1.724-3.761,6.169-5.414,9.933-3.692c3.763,1.724,5.415,6.171,3.691,9.933
		c-1.607,3.505-3.146,7.103-4.577,10.692C30.488,180.397,27.671,182.183,24.695,182.183z"/>
	<path style="fill:#FFC502;" d="M46.243,140.523c-1.397,0-2.81-0.39-4.068-1.207c-3.473-2.25-4.464-6.89-2.213-10.362
		c2.229-3.438,4.577-6.872,6.982-10.206c2.421-3.357,7.104-4.114,10.46-1.695c3.355,2.42,4.115,7.103,1.694,10.46
		c-2.26,3.134-4.468,6.361-6.561,9.591C51.103,139.318,48.697,140.523,46.243,140.523z"/>
</g>
<g>
	<path style="fill:#F7931E;" d="M75.447,103.843c-1.877,0-3.757-0.701-5.211-2.11c-2.973-2.879-3.049-7.622-0.17-10.595
		c2.857-2.95,5.822-5.864,8.812-8.66c3.021-2.828,7.764-2.667,10.591,0.355c2.826,3.022,2.668,7.764-0.354,10.59
		c-2.81,2.627-5.597,5.366-8.283,8.14C79.361,103.081,77.406,103.843,75.447,103.843z"/>
	<path style="fill:#F7931E;" d="M111.162,73.494c-2.372,0-4.703-1.123-6.159-3.217c-2.362-3.398-1.522-8.067,1.876-10.429
		c3.362-2.336,6.83-4.621,10.308-6.791c3.508-2.19,8.132-1.121,10.323,2.391c2.189,3.511,1.119,8.133-2.392,10.324
		c-3.268,2.038-6.527,4.186-9.687,6.382C114.128,73.06,112.637,73.494,111.162,73.494z"/>
	<path style="fill:#F7931E;" d="M152.035,50.634c-2.887,0-5.638-1.678-6.869-4.492c-1.658-3.792,0.071-8.21,3.863-9.868
		c3.746-1.638,7.587-3.205,11.418-4.656c3.863-1.467,8.194,0.481,9.662,4.351c1.466,3.87-0.482,8.195-4.353,9.662
		c-3.597,1.363-7.205,2.835-10.724,4.373C154.057,50.432,153.037,50.634,152.035,50.634z"/>
	<path style="fill:#F7931E;" d="M196.571,36.164c-3.443,0-6.544-2.387-7.311-5.889c-0.886-4.042,1.672-8.037,5.714-8.924
		c4.002-0.878,8.084-1.667,12.133-2.344c4.076-0.685,7.943,2.071,8.627,6.153c0.683,4.081-2.072,7.944-6.153,8.626
		c-3.803,0.637-7.637,1.378-11.396,2.202C197.643,36.107,197.103,36.164,196.571,36.164z"/>
</g>
<g>
	<circle style="fill:#FFC502;" cx="113.26" cy="462.26" r="22.737"/>
	<circle style="fill:#FFC502;" cx="489.09" cy="263.8" r="22.736"/>
	<circle style="fill:#FFC502;" cx="248.38" cy="22.736" r="22.736"/>
</g>
<g>
</g>
<g>
</g>
<g>
</g>
<g>
</g>
<g>
</g>
<g>
</g>
<g>
</g>
<g>
</g>
<g>
</g>
<g>
</g>
<g>
</g>
<g>
</g>
<g>
</g>
<g>
</g>
<g>
</g>
</svg>
